:FULLY-SPECIFIED
:FORCE-ALL-JOINTS-BE-3DOF
:DEGREES
679
root 5.35011 16.3642 0.948817 15.1812 -24.2381 0.0437154
lfemur -39.2209 25.4768 -2.46946
ltibia 111.152 -0 0
lfoot 14.9099 -18.4888 -2.07158
ltoes 15.2341 -0 0
rfemur -35.8274 -11.78 24.5863
rtibia 56.6899 -0 0
rfoot -21.3936 -4.25513 0.00528965
rtoes 1.79579 -0 0
lowerback 1.71223 -6.27128 -1.07567
upperback -1.76133 -8.40078 0.25904
thorax -2.60019 -4.17228 1.19837
lowerneck -8.51715 -4.08842 0.438709
upperneck 3.07046 -5.69348 3.20988
head 2.55666 -2.72181 0.676363
lclavicle -8.91549e-014 -2.06736e-014 0
lhumerus 23.1277 -57.0716 41.323
lradius 90.4438 -0 0
lwrist 30.6319 0 0
lhand -14.3255 -1.12645 0.059151
lfingers 7.12502 -0 0
lthumb 11.8134 28.4871 0.0486053
rclavicle -8.91549e-014 -2.06736e-014 0
rhumerus -43.3584 -6.97993 -42.9385
rradius 83.6155 -0 0
rwrist -18.8015 0 0
rhand -27.4286 -46.2145 0.00492101
rfingers 7.12502 -0 0
rthumb -0.833988 -76.1915 0.00471694
680
root 5.34375 16.3677 1.07429 15.0786 -25.3512 0.0593838
lfemur -40.0134 25.6819 -1.49934
ltibia 113.901 -0 0
lfoot 16.803 -19.5749 -1.60624
ltoes 15.0443 -0 0
rfemur -34.9535 -11.0155 24.349
rtibia 56.2716 -0 0
rfoot -21.8769 -4.26671 0.00411359
rtoes 1.75161 -0 0
lowerback 1.79404 -6.3578 -0.899035
upperback -1.76023 -8.51181 0.28376
thorax -2.65741 -4.2301 1.13787
lowerneck -8.47248 -3.96985 0.47738
upperneck 3.06248 -5.52844 3.05577
head 2.53264 -2.64563 0.630055
lclavicle -8.91549e-014 -2.06736e-014 0
lhumerus 23.9596 -56.0282 39.7926
lradius 91.0843 -0 0
lwrist 30.8421 0 0
lhand -14.6731 -1.30663 0.046002
lfingers 7.12502 -0 0
lthumb 11.4786 28.3333 0.037801
rclavicle -8.91549e-014 -2.06736e-014 0
rhumerus -43.4349 -7.00953 -41.6924
rradius 84.4778 -0 0
rwrist -18.8961 0 0
rhand -27.3565 -46.1421 0.00382743
rfingers 7.12502 -0 0
rthumb -0.764357 -76.1196 0.00366871
681
root 5.33739 16.3712 1.19976 14.9747 -26.4643 0.0774267
lfemur -40.8034 25.8991 -0.530726
ltibia 116.649 -0 0
lfoot 18.6865 -20.6449 -1.10537
ltoes 14.8545 -0 0
rfemur -34.085 -10.2476 24.1241
rtibia 55.8533 -0 0
rfoot -22.3602 -4.27828 0.00283989
rtoes 1.70744 -0 0
lowerback 1.8756 -6.44457 -0.722494
upperback -1.75919 -8.62284 0.308484
thorax -2.71459 -4.28798 1.07741
lowerneck -8.42774 -3.8513 0.516138
upperneck 3.05405 -5.36341 2.90169
head 2.50857 -2.56946 0.583718
lclavicle -8.91549e-014 -2.06736e-014 0
lhumerus 24.7209 -54.9733 38.329
lradius 91.7248 -0 0
lwrist 31.0523 0 0
lhand -15.0207 -1.48673 0.0317601
lfingers 7.12502 -0 0
lthumb 11.1439 28.1796 0.0260984
rclavicle -8.91549e-014 -2.06736e-014 0
rhumerus -43.5119 -7.03746 -40.4463
rradius 85.34 -0 0
rwrist -18.9906 0 0
rhand -27.2844 -46.0697 0.00264273
rfingers 7.12502 -0 0
rthumb -0.694728 -76.0477 0.00253314
682
root 5.33103 16.3747 1.32523 14.8694 -27.5773 0.0979262
lfemur -41.5906 26.1282 0.4363
ltibia 119.398 -0 0
lfoot 20.5601 -21.6977 -0.569704
ltoes 14.6646 -0 0
rfemur -33.2216 -9.47644 23.9115
rtibia 55.4351 -0 0
rfoot -22.8434 -4.28983 0.00146867
rtoes 1.66326 -0 0
lowerback 1.9569 -6.53158 -0.546047
upperback -1.75819 -8.73387 0.333214
thorax -2.7717 -4.34591 1.01702
lowerneck -8.38292 -3.73279 0.554983
upperneck 3.04519 -5.19841 2.74762
head 2.48443 -2.49332 0.537351
lclavicle -8.91549e-014 -2.06736e-014 0
lhumerus 25.4166 -53.9078 36.9268
lradius 92.3653 -0 0
lwrist 31.2624 0 0
lhand -15.3683 -1.66674 0.0164258
lfingers 7.12502 -0 0
lthumb 10.8091 28.026 0.0134978
rclavicle -8.91549e-014 -2.06736e-014 0
rhumerus -43.5896 -7.06373 -39.2
rradius 86.2023 -0 0
rwrist -19.0851 0 0
rhand -27.2123 -45.9973 0.00136692
rfingers 7.12502 -0 0
rthumb -0.625099 -75.9759 0.00131024
